<svg clip-rule="evenodd" fill-rule="evenodd" height="6.827in" image-rendering="optimizeQuality" shape-rendering="geometricPrecision" text-rendering="geometricPrecision" viewBox="0 0 6.82666 6.82666" width="6.827in" xmlns="http://www.w3.org/2000/svg"><g id="Layer_x0020_1"><g id="_411496704"><path id="_411497256" d="m0 0h6.827v6.827h-6.827z" fill="none"/><path id="_411496800" d="m2.13333 1.43999h.686154.0583465l.0316535.0500039c.0536339.0847165.128272.155043.216689.20376.084937.0467953.182799.0734291.287154.0734291.10435 0 .202209-.0266299.287154-.0734291.0884213-.0487205.163059-.119047.216693-.20376l.0316575-.0500039h.0583425.686154l.0583346.0179173 1.17333.773114.0887992.0585118-.0583819.0885748-.52328.793898-.0563268.0854567-.0874252-.0529567-.488386-.295831v2.37132.106669h-.106669-2.56-.106669v-.106669-2.37152l-.488382.296024-.0874055.0529843-.0563465-.0854843-.523283-.793898-.0583819-.0885748.0887992-.0585118 1.17333-.773114.0583346-.0179173zm.630492.213339h-.59935l-1.05734.696685.408559.619843.562642-.341035.161669-.0979921v.188827 2.45367h2.34666v-2.45342-.18876l.161669.0979252.56263.340803.408571-.619866-1.05734-.696685h-.599354c-.0692205.0931732-.157854.170898-.259846.227094-.115795.0637953-.248622.100098-.389657.100098-.141039 0-.27387-.0363031-.389657-.100098-.101992-.0561969-.19063-.133921-.259846-.227094z" fill="#333" fill-rule="nonzero"/></g><path d="m2.76383 1.65333h-.59935l-1.05734.696685.408559.619843.562642-.341035.161669-.0979921v.188827 2.45367h2.34666v-2.45342-.18876l.161669.0979252.56263.340803.408571-.619866-1.05734-.696685h-.599354c-.0692205.0931732-.157854.170898-.259846.227094-.115795.0637953-.248622.100098-.389657.100098-.141039 0-.27387-.0363031-.389657-.100098-.101992-.0561969-.19063-.133921-.259846-.227094z" fill="#b38e85"/></g></svg>