<?xml version="1.0" encoding="iso-8859-1"?>
<!-- Generator: Adobe Illustrator 19.0.0, SVG Export Plug-In . SVG Version: 6.00 Build 0)  -->
<svg version="1.1" id="Capa_1" xmlns="http://www.w3.org/2000/svg" xmlns:xlink="http://www.w3.org/1999/xlink" x="0px" y="0px"
	 viewBox="0 0 500.215 500.215" style="enable-background:new 0 0 500.215 500.215;" xml:space="preserve">
<polygon style="fill:#5C6268;" points="493.898,164.052 415.523,27.388 364.323,8.089 251.683,6.514 251.683,6.514 249.714,6.514 
	247.744,6.514 247.744,6.514 135.104,8.089 83.904,27.388 5.529,164.052 88.237,217.615 110.686,172.717 99.265,494.095 
	247.744,494.095 251.683,494.095 400.163,494.095 388.741,172.717 411.191,217.615 "/>
<polygon style="fill:#474C51;" points="479.72,173.111 415.523,61.652 364.323,42.354 251.683,60.865 247.744,60.865 
	135.104,42.354 83.904,61.652 19.708,173.111 88.237,217.615 110.686,172.717 109.504,209.345 110.686,206.982 100.446,494.095 
	247.744,494.095 251.683,494.095 398.981,494.095 388.741,206.982 389.923,209.345 388.741,172.717 411.191,217.615 "/>
<g>
	<path style="fill:#33363A;" d="M400.163,500.003H99.264c-1.575,0-3.151-0.788-4.332-1.969c-1.182-1.181-1.575-2.757-1.575-4.332
		l10.634-294.203l-10.24,20.48c-0.788,1.575-1.969,2.757-3.545,3.151c-1.575,0.394-3.545,0-4.726-0.788L2.772,168.778
		c-2.757-1.575-3.545-5.12-1.969-7.877L79.178,24.237c0.788-1.181,1.575-1.969,3.151-2.757l51.2-19.298
		c0.788-0.394,1.182-0.394,1.969-0.394l116.578-1.575l112.64,1.575c0.788,0,1.182,0,1.969,0.394l51.2,19.298
		c1.182,0.394,2.363,1.575,3.151,2.757l78.375,136.665c1.575,2.757,0.788,6.302-1.969,7.877l-82.708,53.563
		c-1.575,0.788-3.151,1.181-4.726,0.788c-1.575-0.394-3.151-1.575-3.545-3.151l-10.24-20.48l10.634,294.203
		c0,1.575-0.394,3.151-1.575,4.332C403.314,499.215,401.738,500.003,400.163,500.003z M105.566,488.188h288.689l-11.028-315.077
		c0-2.757,1.575-5.12,4.332-5.908c2.757-0.788,5.514,0.788,6.695,3.151l19.692,38.991l72.468-46.868L411.978,32.508l-48.443-18.117
		l-115.397-1.575L136.68,14.391L88.237,32.508L13.8,162.477l72.468,46.868l19.692-38.991c1.182-2.363,3.938-3.938,6.695-3.151
		c2.757,0.788,4.726,3.151,4.332,5.908L105.566,488.188z"/>
	<path style="fill:#33363A;" d="M100.446,469.677L100.446,469.677c-3.545,0-5.908-2.757-5.908-6.302l12.997-362.732
		c0-3.151,2.757-5.908,6.302-5.514c3.151,0,5.908,2.757,5.514,6.302l-12.997,362.732
		C106.354,467.314,103.597,469.677,100.446,469.677z"/>
	<path style="fill:#33363A;" d="M398.981,469.677c-3.151,0-5.908-2.363-5.908-5.514l-12.997-362.732
		c0-3.151,2.363-5.908,5.514-6.302c3.151,0,5.908,2.363,6.302,5.514l12.997,362.732C404.889,466.92,402.526,469.677,398.981,469.677
		L398.981,469.677z"/>
</g>
<path style="fill:#9DB8BF;" d="M249.714,66.378c52.382,0,95.311-25.994,96.492-58.289l-94.523-1.575l0,0h-1.969h-1.969l0,0
	l-94.523,1.575C154.403,40.385,197.332,66.378,249.714,66.378z"/>
<path style="fill:#85A3AA;" d="M328.877,40.778l-77.588-1.181l0,0h-1.969h-1.969l0,0l-77.588,1.181
	c17.329,15.754,46.474,25.6,79.163,25.6C282.403,66.378,311.548,56.139,328.877,40.778z"/>
<path style="fill:#33363A;" d="M249.714,72.286c-55.926,0-101.218-27.963-102.4-63.803c0-1.575,0.394-3.151,1.575-4.332
	s2.757-1.969,4.332-1.969l98.462-1.575l94.523,1.575c1.575,0,3.151,0.788,4.332,1.969s1.575,2.757,1.575,4.332
	C350.932,44.323,305.64,72.286,249.714,72.286z M159.917,13.997c5.908,25.994,44.505,46.474,89.797,46.474
	s83.889-20.48,89.797-46.474l-91.766-1.575L159.917,13.997z"/>
<g>
	<path style="fill:#95B2BA;" d="M123.289,474.797h-5.908c-1.182,0-1.969-0.788-1.969-1.969s0.788-1.969,1.969-1.969h5.908
		c1.182,0,1.969,0.788,1.969,1.969S124.471,474.797,123.289,474.797z"/>
	<path style="fill:#95B2BA;" d="M363.929,474.797H351.72c-1.182,0-1.969-0.788-1.969-1.969s0.788-1.969,1.969-1.969h12.209
		c1.182,0,1.969,0.788,1.969,1.969S365.111,474.797,363.929,474.797z M339.904,474.797h-12.209c-1.182,0-1.969-0.788-1.969-1.969
		s0.788-1.969,1.969-1.969h12.209c1.182,0,1.969,0.788,1.969,1.969S341.086,474.797,339.904,474.797z M315.88,474.797h-12.209
		c-1.182,0-1.969-0.788-1.969-1.969s0.788-1.969,1.969-1.969h12.209c1.182,0,1.969,0.788,1.969,1.969
		S317.061,474.797,315.88,474.797z M291.855,474.797h-12.209c-1.182,0-1.969-0.788-1.969-1.969s0.788-1.969,1.969-1.969h12.209
		c1.182,0,1.969,0.788,1.969,1.969S293.037,474.797,291.855,474.797z M267.831,474.797h-12.209c-1.182,0-1.969-0.788-1.969-1.969
		s0.788-1.969,1.969-1.969h12.209c1.182,0,1.969,0.788,1.969,1.969S269.012,474.797,267.831,474.797z M243.806,474.797h-12.209
		c-1.182,0-1.969-0.788-1.969-1.969s0.788-1.969,1.969-1.969h12.209c1.182,0,1.969,0.788,1.969,1.969
		S244.988,474.797,243.806,474.797z M219.781,474.797h-12.209c-1.182,0-1.969-0.788-1.969-1.969s0.788-1.969,1.969-1.969h12.209
		c1.182,0,1.969,0.788,1.969,1.969S220.963,474.797,219.781,474.797z M195.757,474.797h-12.209c-1.182,0-1.969-0.788-1.969-1.969
		s0.788-1.969,1.969-1.969h12.209c1.182,0,1.969,0.788,1.969,1.969S196.544,474.797,195.757,474.797z M171.732,474.797h-12.209
		c-1.182,0-1.969-0.788-1.969-1.969s0.788-1.969,1.969-1.969h12.209c1.182,0,1.969,0.788,1.969,1.969
		S172.52,474.797,171.732,474.797z M147.708,474.797h-12.209c-1.182,0-1.969-0.788-1.969-1.969s0.788-1.969,1.969-1.969h12.209
		c1.182,0,1.969,0.788,1.969,1.969S148.495,474.797,147.708,474.797z"/>
	<path style="fill:#95B2BA;" d="M382.046,474.797h-5.908c-1.182,0-1.969-0.788-1.969-1.969s0.788-1.969,1.969-1.969h5.908
		c1.182,0,1.969,0.788,1.969,1.969S383.228,474.797,382.046,474.797z"/>
</g>
<g>
</g>
<g>
</g>
<g>
</g>
<g>
</g>
<g>
</g>
<g>
</g>
<g>
</g>
<g>
</g>
<g>
</g>
<g>
</g>
<g>
</g>
<g>
</g>
<g>
</g>
<g>
</g>
<g>
</g>
</svg>
