<svg id="Layer_1" enable-background="new 0 0 511.94 511.94" viewBox="0 0 511.94 511.94" xmlns="http://www.w3.org/2000/svg"><g><g><path d="m489.38 230.3v33.26c0 8.28-6.71 15-15 15h-45.23l-5.5-7.72-9.56 7.72v7.56l-4.74 8.21 4.74 6.79v60.29l-6.01 9.39 6.01 5.61v60.3l-6.14 4.05 6.14 10.95v22.73c0 16.57-13.43 30-30 30h-256.24c-16.57 0-30-13.43-30-30v-22.73l6.78-5.89-6.78-9.11v-60.3l4.1-7.5-4.1-7.5v-60.29l5.5-4.87-5.5-10.13v-7.56l-4.84-4.91-10.22 4.91h-45.23c-8.29 0-15-6.72-15-15v-33.26c0-1.49.01-2.99.03-4.48l4.85-7.5-4.32-7.5c1.19-20.37 4.21-40.55 9.03-60.29l6.67-6.2-2.65-8.8c6.09-20.77 14.19-40.97 24.22-60.3l13.52-7.5-5.07-7.5c9.87-15.3 23.09-27.82 38.37-36.82 13.24-7.79 28.05-12.94 43.59-14.95l12.13 4 17.75-4.96h150.58l9.62 6.07 20.26-5.11c15.54 2.01 30.35 7.16 43.59 14.95 15.28 9 28.5 21.52 38.37 36.82l-1.19 9.42 9.65 5.58c10.02 19.33 18.12 39.53 24.21 60.3l-2.33 6.76 6.35 8.24c4.82 19.74 7.84 39.92 9.03 60.29l-5.81 9.98 6.34 5.02c.02 1.49.03 2.98.03 4.48z" fill="#fffae6"/><path d="m174 121.48v356.94s.78 16.42 16.72 26.02h-62.87c-16.57 0-30-13.43-30-30v-22.73l6.78-5.89-6.78-9.11v-60.3l4.1-7.5-4.1-7.5v-60.29l5.5-4.87-5.5-10.13v-7.56l-4.84-4.91-10.22 4.91h-45.23c-8.29 0-15-6.72-15-15v-33.26c0-1.49.01-2.99.03-4.48l4.85-7.5-4.32-7.5c1.19-20.37 4.21-40.55 9.03-60.29l6.67-6.2-2.65-8.8c6.09-20.77 14.19-40.97 24.22-60.3l13.52-7.5-5.07-7.5c9.87-15.3 23.09-27.82 38.37-36.82 13.24-7.79 28.05-12.94 43.59-14.95l12.13 4 17.75-4.96h58.8c-23.93 12.47-65.48 44.18-65.48 113.98z" fill="#fff0ce"/><path d="m361.14 8.46c-3.1 11.79-23.43 74.33-105.17 74.33-31.29 0-53.58-9.17-69.36-21.14l-1.3-17.87 16.41-5.86c11.25 8.16 28.35 14.76 54.25 14.76 67.76 0 75.29-45.18 75.29-45.18h15.06c4.99 0 9.94.32 14.82.96z" fill="#bd9cde"/><path d="m201.72 37.92c-5.56 6.74-10.76 14.61-15.11 23.73-25.42-19.31-33.9-45.91-35.81-53.19 4.88-.64 9.83-.96 14.82-.96h15.06c0 0 2.87 17.24 21.04 30.42z" fill="#a57cd2"/><path d="m376.44 263.74c0 12.14-3.19 24.34-9.76 35.24-17.66 29.29-49.48 63.49-105.83 81.34-3.18 1.01-6.58 1.01-9.76 0-33.76-10.69-58.71-27.26-77.09-45.12l-17.37-92.53 17.37-40.66c8.8-4.18 18.33-6.28 27.87-6.28 15.31 0 30.67 5.41 43.12 16.34l.32.29c6.13 5.38 15.19 5.38 21.32 0l.32-.29c26.3-23.08 65.52-21.53 90.01 3.55 12.79 13.11 19.48 30.54 19.48 48.12z" fill="#fb695b"/><path d="m174 202.01v133.19c-12.3-11.94-21.66-24.47-28.74-36.22-16.08-26.67-11.91-61.2 9.72-83.36 5.66-5.8 12.12-10.34 19.02-13.61z" fill="#f54432"/><path d="m279.578 277.583c.046-14.556-10.495-15.956-23.502-15.997s-23.556 1.294-23.602 15.849 10.462 26.387 23.469 26.428c13.008.042 23.59-11.725 23.635-26.28z" fill="#495560"/></g><g><path d="m453.557 63.1c-22.373-40.295-61.942-62.7-111.477-63.087l-176.459-.013c-44.536 0-85.626 24.178-107.238 63.098-28.341 51.025-43.323 108.842-43.323 167.202v33.26c0 12.407 10.094 22.5 22.5 22.5h52.79v103c0 4.142 3.357 7.5 7.5 7.5s7.5-3.358 7.5-7.5v-12.65l115.317-.03c8.648 4.126 18.002 7.873 28.152 11.088 4.676 1.484 9.619 1.487 14.295.001 9.832-3.115 19.236-6.822 28.196-11.088l115.28.028v60.3h-301.24v-12.65c0-4.142-3.357-7.5-7.5-7.5s-7.5 3.358-7.5 7.5v50.38c0 20.678 16.822 37.5 37.5 37.5h256.24c20.678 0 37.5-16.822 37.5-37.5v-188.379h52.79c12.406 0 22.5-10.093 22.5-22.5v-33.26c0-58.35-14.98-116.168-43.323-167.2zm-39.467 117.606c-4.143 0-7.5 3.358-7.5 7.5v22.615h-43.852c-27.415-28.517-71.445-30.091-100.735-4.387-3.732 3.359-8.451 3.152-11.708.323-28.965-26.199-73.466-24.678-101.093 4.064h-43.849v-22.615c0-4.142-3.357-7.5-7.5-7.5s-7.5 3.358-7.5 7.5v22.615h-59.704c1.214-20.358 4.326-40.551 9.256-60.29h432.127c4.931 19.74 8.043 39.933 9.258 60.29h-59.7v-22.615c0-4.143-3.357-7.5-7.5-7.5zm-7.5 105.414h-25.993c6.232-20.116 3.817-42.01-6.629-60.3h32.623v60.3zm-275.249 0h-25.991l.003-60.3h32.615c-10.449 18.288-12.863 40.182-6.627 60.3zm302.734-225.89h-95.511c15.933-15.158 23.97-32.464 27.665-42.904 28.446 5.398 51.82 20.128 67.846 42.904zm-113.492-45.219c-6.041 11.695-22.283 30.169-64.613 30.169-42.341 0-58.581-18.484-64.618-30.178zm-145.541-.01c4.926 13.658 22.622 45.179 80.928 45.179 58.29 0 75.992-31.503 80.924-45.168 5.244 0 8.289-.05 14.063.355-6.001 15.274-21.234 42.263-56.385 54.073-3.927 1.319-6.04 5.572-4.721 9.498 1.319 3.927 5.572 6.04 9.498 4.721 6.974-2.343 13.251-5.213 18.939-8.43h124.792c10.273 19.256 18.575 39.477 24.829 60.3h-423.88c6.254-20.825 14.557-41.045 24.83-60.3h124.685c20.862 11.873 45.078 15.938 69.253 14.914 4.139-.175 7.352-3.672 7.176-7.811-.175-4.139-3.667-7.363-7.811-7.176-52.591 2.221-86.945-22.635-101.311-60.039 3.539-.155 4.155-.117 14.191-.116zm-29.482 1.898c5.453 15.603 14.859 30.965 27.832 43.331h-95.477c16.15-22.691 40.466-38.173 67.645-43.331zm-108 254.161c-4.136 0-7.5-3.365-7.5-7.5l.036-37.74h60.257v45.24zm67.79 90.35v-60.29h32.492c11.96 21.058 31.742 43.387 56.656 60.29zm212.18 0c5.874-3.979 11.495-8.244 16.833-12.809 3.148-2.692 3.519-7.426.826-10.575-2.691-3.147-7.426-3.52-10.574-.826-18.557 15.866-40.773 27.968-66.036 35.972-1.705.542-3.51.542-5.225-.001-55.786-17.671-86.081-52.205-101.672-78.063-14.346-23.793-10.782-54.325 8.663-74.248 21.896-22.424 57.004-23.715 79.928-2.942 8.506 7.797 22.125 8.353 31.661-.244 23.137-20.269 58.117-18.875 79.657 3.183 19.44 19.928 23.004 50.461 8.667 74.247-3.788 6.275-7.956 12.305-12.387 17.92-2.565 3.251-2.01 7.968 1.241 10.534 3.254 2.566 7.968 2.011 10.534-1.242 5.723-7.253 11.154-15.387 14.45-21.196h32.492v60.29zm66.56 135.53h-256.24c-12.406 0-22.5-10.093-22.5-22.5v-22.73h301.24v22.73c0 12.407-10.093 22.5-22.5 22.5zm97.79-233.38c0 4.135-3.364 7.5-7.5 7.5h-52.79v-45.24h60.254z"/><path d="m256.099 254.086c-9.277-.025-31.051-.097-31.125 23.326-.058 18.119 13.257 33.952 31.037 33.952 17.079 0 31.009-15.124 31.067-33.757.073-23.424-21.687-23.492-30.979-23.521zm-.088 42.278c-9.188 0-16.069-8.91-16.037-18.905.019-5.787.663-8.373 15.66-8.373h.418c15.403.048 16.045 2.632 16.026 8.474-.032 10.379-7.236 18.804-16.067 18.804z"/><path d="m193.972 248.47c-12.012 0-21.435 9.706-21.472 21.337-.013 4.142 3.334 7.511 7.477 7.524 4.198 0 7.511-3.377 7.523-7.476.017-5.669 6.935-8.532 10.947-4.495 1.206 1.213 1.867 2.824 1.861 4.534-.013 4.142 3.334 7.511 7.477 7.524 4.199 0 7.51-3.377 7.523-7.476.039-11.83-9.506-21.434-21.336-21.472z"/><path d="m318.261 248.859c-12.012 0-21.435 9.706-21.472 21.337-.013 4.142 3.334 7.511 7.477 7.524 4.199 0 7.511-3.377 7.523-7.476.017-5.681 6.942-8.524 10.947-4.495 1.206 1.213 1.867 2.824 1.861 4.534-.013 4.142 3.334 7.511 7.477 7.524 4.198 0 7.51-3.377 7.523-7.476.04-11.829-9.506-21.434-21.336-21.472z"/></g></g><g/><g/><g/><g/><g/><g/><g/><g/><g/><g/><g/><g/><g/><g/><g/></svg>