<svg id="Capa_1" enable-background="new 0 0 512 512" height="512" viewBox="0 0 512 512" width="512" xmlns="http://www.w3.org/2000/svg"><g><g><path d="m87.189 20.64-84.137 136.931c-5.967 9.711-2.916 22.422 6.81 28.366l77.327 47.263h46.22z" fill="#ea7dbe"/></g><g><path d="m87.189 92.752-34.481 119.373 34.481 21.075h38.46z" fill="#dd6cb5"/></g><g><path d="m424.811 20.64 84.137 136.931c5.967 9.711 2.916 22.422-6.81 28.366l-77.327 47.263h-38.46z" fill="#f492c8"/></g><g><path d="m424.811 92.752 34.481 119.373-34.481 21.075h-38.46z" fill="#ea7dbe"/></g><g><path d="m329.178.23c-5.663-1.209-11.287 2.473-12.273 8.18-5.03 29.084-30.384 51.205-60.905 51.205s-55.875-22.121-60.904-51.205c-.987-5.706-6.61-9.388-12.273-8.18l-95.633 20.41v439.593c0 19.54 13.717 36.381 32.848 40.352 26.467 5.493 70.239 11.415 135.962 11.415s109.495-5.922 135.963-11.416c19.132-3.971 32.848-20.813 32.848-40.352v-439.593z" fill="#ffa4d2"/></g><g><path d="m256 186.037v-126.422c-30.521 0-55.875-22.121-60.904-51.205-.987-5.706-6.61-9.388-12.273-8.18l-95.634 20.409v439.593c0 19.54 13.717 36.381 32.848 40.352 26.468 5.494 70.24 11.416 135.963 11.416s109.495-5.922 135.963-11.416c19.132-3.971 32.848-20.813 32.848-40.352v-105.384c-93.232 0-168.811-75.579-168.811-168.811z" fill="#f492c8"/></g><g><path d="m329.304.448c-5.706-1.313-11.416 2.378-12.431 8.145-5.104 28.994-30.416 51.022-60.873 51.022s-55.769-22.028-60.872-51.021c-1.015-5.767-6.725-9.458-12.431-8.145l-19.148 4.406c3.602 47.911 43.617 85.665 92.451 85.665s88.849-37.754 92.451-85.666z" fill="#f492c8"/></g><g><path d="m240.547 75.067c0-8.534 6.918-15.453 15.453-15.453-30.457 0-55.768-22.028-60.872-51.021-1.015-5.767-6.725-9.458-12.431-8.145l-19.148 4.406c3.602 47.912 43.617 85.666 92.451 85.666-8.534 0-15.453-6.918-15.453-15.453z" fill="#ea7dbe"/></g></g></svg>