<svg id="Capa_1" enable-background="new 0 0 512 512" height="512" viewBox="0 0 512 512" width="512" xmlns="http://www.w3.org/2000/svg"><g><g><g><path d="m503.242 201.764-37.81-133.623c-5.202-18.384-19.444-32.831-37.752-38.296l-69.37-20.705c-7.464-2.228-15.425-2.158-22.848.2l-4.68 1.486c-48.657 15.453-100.905 15.453-149.562 0l-4.68-1.486c-7.423-2.358-15.385-2.427-22.848-.2l-69.37 20.705c-18.309 5.465-32.551 19.912-37.753 38.297l-37.811 133.622c-3.814 13.478 3.628 27.575 16.908 32.028l67.878 22.763v219.866c0 15.507 12.571 28.079 28.079 28.079h268.755c15.507 0 28.079-12.571 28.079-28.079v-219.866l67.878-22.763c13.279-4.453 20.721-18.55 16.907-32.028z" fill="#fa8084"/><path d="m405.696 188.001c-13.283 4.455-22.235 16.898-22.235 30.909v269.344c0 6.056-1.924 11.66-5.185 16.247h12.102c15.507 0 28.079-12.571 28.079-28.079v-287.416c0-2.598-2.548-4.431-5.011-3.605z" fill="#f8636f"/><g><path d="m503.242 201.764-37.81-133.623c-5.202-18.384-19.444-32.831-37.752-38.296l-69.37-20.705c-4.049-1.209-8.243-1.716-12.42-1.569-1.606 2.986-5.21 9.329-10.655 16.959l57.449 17.147c18.308 5.464 32.55 19.912 37.752 38.296l40.474 143.036c2.169 7.664-1.642 15.653-8.74 18.886l24.163-8.103c13.281-4.453 20.723-18.55 16.909-32.028z" fill="#f8636f"/></g></g><path d="m345.893 7.566c-3.523.12-7.034.695-10.432 1.774l-4.68 1.486c-48.656 15.453-100.905 15.453-149.562 0l-4.68-1.486c-3.397-1.079-6.908-1.655-10.432-1.774 5.848 10.877 38.221 66.377 89.893 66.377s84.044-55.5 89.893-66.377z" fill="#f84954"/></g><g><path d="m86.044 382.138c0 4.142 3.358 7.5 7.5 7.5s7.5-3.358 7.5-7.5v-198.417c0-4.142-3.358-7.5-7.5-7.5s-7.5 3.358-7.5 7.5v62.409l-57.993-19.448c-9.501-3.186-14.805-13.234-12.077-22.876l37.811-133.623c4.528-16.002 16.745-28.395 32.681-33.152l69.369-20.704c1.953-.583 3.939-.971 5.937-1.166 51.482 88.276 136.96 88.298 188.454 0 1.998.195 3.984.583 5.937 1.166l69.37 20.705c15.936 4.757 28.153 17.15 32.681 33.152l1.929 6.815c1.129 3.985 5.272 6.301 9.258 5.174 3.986-1.128 6.302-5.273 5.175-9.259l-1.929-6.815c-5.933-20.968-21.942-37.208-42.824-43.44l-69.37-20.705c-16.945-5.059-29.446 1.248-31.943 1.725-47.438 15.065-97.584 15.065-145.022 0-2.54-.485-15.034-6.771-31.943-1.725l-69.368 20.705c-20.882 6.233-36.891 22.472-42.825 43.441l-37.811 133.622c-4.911 17.356 4.638 35.445 21.74 41.181l62.763 21.048zm243.965-363.219c-4.39 6.271-10.161 13.612-17.174 20.602-36.025 35.911-77.591 35.965-113.67 0-7.013-6.991-12.784-14.332-17.174-20.603 48.491 14.749 99.528 14.749 148.018.001z"/><path d="m510.459 199.722-26.337-93.074c-1.127-3.986-5.27-6.301-9.258-5.175-3.986 1.128-6.302 5.273-5.175 9.258l26.337 93.074c2.728 9.642-2.577 19.69-12.077 22.876l-57.994 19.449v-62.409c0-4.142-3.358-7.5-7.5-7.5s-7.5 3.358-7.5 7.5v292.701c0 11.347-9.232 20.579-20.579 20.579h-268.753c-11.348 0-20.579-9.232-20.579-20.579v-59.226c0-4.142-3.358-7.5-7.5-7.5s-7.5 3.358-7.5 7.5v59.226c0 19.618 15.96 35.578 35.579 35.578h268.754c19.618 0 35.579-15.96 35.579-35.578v-214.471l62.763-21.048c17.101-5.736 26.651-23.824 21.74-41.181z"/></g></g></svg>